<svg width="76" height="76" viewBox="0 0 76 76" fill="none" xmlns="http://www.w3.org/2000/svg">
<path d="M24.8898 29.4495C23.7498 28.6895 22.9898 27.6635 22.5718 26.5235C22.1158 25.3835 22.0018 24.1295 22.1538 22.9135C22.2678 21.6975 22.6478 20.5575 23.1798 19.5695C23.7498 18.5435 24.5098 17.7075 25.3838 17.2135C26.1438 15.2755 27.4358 13.9455 29.0318 13.0335C30.5898 12.1595 32.4138 11.6655 34.3518 11.4375C35.5678 10.5635 37.1638 9.84145 39.1018 9.53745C40.8118 9.27145 42.7878 9.38546 44.9918 9.99346C45.5238 10.1455 46.0178 10.2595 46.5498 10.4115C49.5898 11.1715 52.5538 11.9695 55.1378 14.1355C55.2138 14.2115 55.3658 14.3255 55.4798 14.4395C56.7718 15.5415 58.1018 16.6435 58.7858 19.1135C59.1278 19.2655 59.4698 19.5315 59.8118 19.8355C60.2678 20.2535 60.6478 20.8615 60.9518 21.5455C61.7498 23.5595 61.6738 25.1175 60.9518 26.3335C60.6098 26.9795 60.0778 27.5115 59.5078 27.9295C59.6598 28.1195 59.8118 28.3095 59.9638 28.5375C60.0018 28.5755 60.0018 28.5755 60.0018 28.6135V28.6515C60.4578 29.4495 60.4578 30.5895 60.1158 31.7295C59.8118 32.8315 59.2038 34.0095 58.5198 34.6935C57.4558 35.7955 56.2398 36.6315 54.9478 37.1255C54.4918 37.2775 54.0358 37.4295 53.5418 37.5055L53.4278 38.5315C53.3138 39.3675 53.1238 40.3934 53.3898 42.1414C53.7318 43.3195 53.8078 44.5735 53.7318 45.8655C53.6558 47.1194 53.4278 48.3735 53.1238 49.6275C52.3258 53.0095 51.6798 56.6195 51.7178 60.0015C51.7558 63.3074 52.3638 66.4235 54.0738 69.0075C54.4538 69.5395 54.3018 70.2994 53.7318 70.6414C53.1998 71.0215 52.4398 70.8695 52.0978 70.2994C50.0838 67.2975 49.3618 63.7255 49.3238 60.0015C49.3238 56.3535 49.9698 52.5915 50.8058 49.0575C51.0718 47.9175 51.2998 46.8154 51.3378 45.7134C51.4138 44.7254 51.3378 43.7754 51.1098 42.9015C50.3498 41.7234 49.2858 40.4695 48.2218 39.2915C46.9298 37.8855 45.6378 36.7075 44.7638 35.9475C43.9658 36.1755 43.2438 36.2515 42.5598 36.0615C42.0278 35.9095 41.6098 35.6435 41.2298 35.2635C40.8118 35.5295 40.3558 35.7195 39.7478 35.7575C38.3418 35.8715 37.0878 35.7195 35.9478 35.3775C34.7698 34.9975 33.7438 34.3895 32.9838 33.5915C32.3758 32.9455 32.1098 32.3375 31.9578 31.6535C31.5778 31.8055 31.1598 31.9195 30.7418 31.9955C29.9058 32.1855 29.0698 32.2235 28.2338 32.1095C27.8158 32.0335 27.4358 31.9195 27.0558 31.7675C26.2958 31.4255 25.6878 30.8935 25.2698 30.2475C25.0798 29.9815 24.9658 29.7155 24.8898 29.4495ZM27.0938 28.3855C27.1318 28.4615 27.1318 28.5755 27.1318 28.6515C27.1698 28.7655 27.2078 28.8415 27.2458 28.9555C27.3978 29.2215 27.7018 29.4495 28.0058 29.6015C28.1958 29.6775 28.3858 29.7535 28.5758 29.7535C29.0698 29.8295 29.6398 29.7915 30.2098 29.6775C30.7798 29.5635 31.3118 29.3735 31.8058 29.1455C31.9578 28.7275 32.1478 28.3475 32.3758 28.0055C32.6798 27.5495 32.9458 27.1695 33.1738 26.8655C33.6678 26.2955 34.5038 25.5355 35.6058 25.2315C36.1758 25.0795 36.7838 25.0415 37.4298 25.1935C37.9238 24.5475 38.5698 23.9775 39.3678 23.5215C40.3178 22.9515 41.5338 22.6095 43.0538 22.5335C43.6618 21.5075 44.7638 20.5955 46.1698 20.0255C47.5758 19.4555 49.3238 19.2655 51.2238 19.7595C51.8698 19.9115 52.2498 20.5575 52.0598 21.2035C51.8698 21.8495 51.2618 22.2295 50.6158 22.0395C49.2858 21.6975 48.0318 21.8115 47.0438 22.1915C45.9038 22.6475 45.1438 23.3695 44.9538 24.0155C44.8018 24.5095 44.3458 24.8515 43.8138 24.8515C42.3698 24.8135 41.3438 25.1175 40.5458 25.5355C39.8238 25.9535 39.3298 26.5235 38.9118 27.1695C38.6078 27.7395 37.8858 27.9295 37.3158 27.6255C36.8978 27.4355 36.5558 27.3975 36.2138 27.4735C35.6818 27.6255 35.2258 28.0435 34.9598 28.3475C34.7698 28.5755 34.5418 28.8795 34.3518 29.1835C34.1998 29.4115 34.0858 29.6775 33.9718 29.9815L34.0478 30.2475C34.1998 30.9315 34.3138 31.5015 34.6938 31.8815C35.1498 32.3755 35.8338 32.7555 36.6318 33.0215C37.4678 33.2875 38.4558 33.4015 39.5578 33.3255C39.8618 33.2875 40.2038 32.9835 40.6978 32.5275L40.7358 32.4895C41.2298 32.0715 41.9518 32.0715 42.4078 32.5655C42.5218 32.7175 42.5978 32.8695 42.6738 33.0215C42.7878 33.4395 42.9778 33.6675 43.1678 33.7055C43.4718 33.7815 43.9658 33.6675 44.5358 33.4395C44.9538 33.2875 45.4478 33.3635 45.7518 33.6295C46.6638 34.3515 48.3358 35.8715 49.9318 37.5815C50.2738 37.9235 50.6158 38.3035 50.9198 38.6835C50.9578 38.4555 50.9958 38.2655 51.0338 38.0375C51.0718 37.8475 51.1098 37.6195 51.1098 37.4295C50.9958 37.4295 50.9198 37.3915 50.8058 37.3915C50.1598 37.2775 49.7038 36.6695 49.8178 36.0235C49.9318 35.3775 50.5398 34.9215 51.1858 35.0355C51.5278 35.0735 51.8698 35.1115 52.1738 35.1115H52.2498C52.8578 35.0735 53.4658 34.9595 54.0738 34.7315C55.0618 34.3515 55.9738 33.7055 56.8098 32.8695C57.2278 32.4515 57.6078 31.6915 57.7978 30.9315C57.9498 30.3615 58.0258 29.8675 57.9118 29.6775V29.6395L57.8738 29.6015C57.6458 29.2215 57.3038 28.9935 56.8478 28.8415C56.8098 28.8415 56.7718 28.8035 56.7338 28.8035C55.9358 28.5375 54.8338 28.6135 53.6558 28.8415C51.4138 29.2595 48.9818 30.2855 47.3098 31.2735C47.2718 31.2735 47.2718 31.3115 47.2718 31.3115L47.1958 31.3495C46.6258 31.6915 45.9038 31.5015 45.5618 30.9315C45.2198 30.3615 45.4098 29.6395 45.9798 29.2975L46.0558 29.2595C46.0938 29.2595 46.0938 29.2215 46.1318 29.2215C47.9938 28.1575 50.7298 26.9795 53.2378 26.5235C54.6058 26.2575 55.9358 26.2195 57.0758 26.4475C57.8738 26.0295 58.5198 25.5735 58.8618 25.0035C59.2038 24.3955 59.2418 23.5215 58.7098 22.2295C58.5578 21.8495 58.3678 21.5455 58.1398 21.3175C57.9498 21.1275 57.7598 21.0135 57.5698 20.9755C57.1138 20.8995 56.7338 20.5575 56.6198 20.0635C56.1638 17.9355 55.0238 16.9855 53.9218 16.0355C53.8078 15.9595 53.7318 15.8835 53.5418 15.7315C51.4138 13.9075 48.6778 13.2235 45.9418 12.5015C45.4098 12.3495 44.8778 12.2355 44.3458 12.0835C42.4838 11.5515 40.8118 11.4755 39.4058 11.7035C37.8098 11.9315 36.4798 12.5395 35.5298 13.2995C35.3778 13.4135 35.1498 13.5275 34.9218 13.5655C33.1738 13.7555 31.5398 14.1355 30.2098 14.8955C28.9938 15.6175 28.0058 16.6435 27.4738 18.2395C27.3598 18.5815 27.1318 18.8855 26.7518 18.9995C26.1818 19.1895 25.6498 19.7595 25.2698 20.5195C24.8898 21.2415 24.5858 22.0775 24.5098 22.9515C24.4338 23.8255 24.5098 24.6995 24.8138 25.4595C24.9278 25.7635 25.0798 26.0675 25.2698 26.3335C25.6118 25.9535 26.1818 25.8015 26.6758 26.0295C27.2838 26.2955 27.5498 27.0175 27.2458 27.5875C27.1698 27.7015 27.1318 27.8535 27.1318 27.9675C27.0938 28.2335 27.0938 28.3095 27.0938 28.3855Z" fill="#B5A6B0" fill-opacity="0.9"/>
<path d="M68.5141 71.782C69.0081 72.656 68.7041 73.758 67.8301 74.252C66.9561 74.746 65.8541 74.442 65.3601 73.568C65.0941 73.15 64.8281 72.656 64.4481 72.086C61.9021 67.982 56.5441 59.318 57.7221 52.972C58.5201 48.64 60.3441 45.296 62.2061 41.914C64.6001 37.544 67.0701 33.06 67.0701 26.106C67.0701 19.57 64.3721 14.022 60.0401 10.108C55.4801 6.004 49.0201 3.61 41.9141 3.61C40.3941 3.61 38.9121 3.762 37.4301 4.028C31.6541 5.13 26.2961 8.246 22.3821 12.35C18.5061 16.378 16.0361 21.356 16.0361 26.22C16.0361 27.094 16.1121 28.006 16.3021 28.842C16.6821 30.856 14.2881 34.884 11.7801 39.102C10.8301 40.698 9.88012 42.294 9.00612 43.89C9.00612 43.928 8.96812 43.966 8.96812 44.004V44.08C9.00612 44.156 9.08212 44.194 9.15812 44.27C9.19612 44.308 9.27212 44.308 9.34812 44.346C10.1461 44.574 11.5901 44.878 12.7681 45.068C13.3001 45.182 13.7561 45.258 14.0981 45.334C15.0861 45.524 15.6941 46.512 15.5041 47.462C15.4661 47.576 15.4661 47.652 15.3901 47.766C15.2761 48.07 15.2001 48.374 15.0861 48.678C14.8961 49.286 14.7061 49.856 14.4401 50.54L15.0101 50.654C15.8841 50.844 16.7581 50.958 17.3661 50.996C18.3541 51.034 19.1521 51.832 19.1521 52.858C19.1141 53.846 18.2781 54.644 17.2901 54.606C16.7201 54.606 15.9981 54.492 15.2381 54.378C16.8721 55.632 16.4161 57.266 15.8461 59.204C15.5801 60.078 15.3141 61.104 15.6561 62.092C16.8721 63.954 23.1801 64.79 27.3981 65.36C28.0441 65.436 28.6901 65.512 28.8801 65.55C31.0461 65.854 32.5281 66.424 33.8581 67.754C35.0361 68.932 36.0241 70.68 37.2401 73.378C37.6581 74.29 37.2401 75.354 36.3281 75.772C35.4161 76.19 34.3521 75.772 33.9341 74.86C32.9081 72.542 32.1481 71.098 31.3121 70.3C30.6281 69.616 29.7541 69.312 28.4241 69.122C27.7401 69.008 27.3601 68.97 26.9801 68.932C22.0021 68.248 14.5541 67.26 12.5401 63.84C12.5021 63.764 12.4641 63.726 12.4261 63.65C11.4761 61.446 11.9701 59.698 12.3881 58.216C12.5781 57.494 12.7301 56.962 11.6281 56.62C10.6781 56.316 10.1461 55.328 10.4501 54.378C10.6021 53.922 10.9061 53.58 11.2481 53.352C11.2101 53.352 11.2101 53.314 11.1721 53.314C10.2601 52.858 9.91812 51.794 10.3361 50.882C10.7921 49.932 11.0961 49.172 11.3621 48.45C10.2981 48.26 9.12012 47.994 8.39812 47.804C8.09412 47.728 7.75212 47.576 7.44812 47.424C6.68812 47.006 6.08012 46.36 5.70012 45.638C5.32012 44.84 5.20612 43.928 5.47212 43.016C5.54812 42.75 5.66212 42.446 5.81412 42.18C6.65012 40.66 7.67612 38.95 8.66412 37.278C10.8301 33.668 12.8821 30.248 12.7301 29.526C12.5021 28.424 12.4261 27.322 12.4261 26.22C12.4261 20.406 15.2761 14.554 19.7601 9.88C24.1681 5.244 30.2101 1.748 36.7081 0.494C38.4181 0.152 40.1281 0 41.8761 0C49.8941 0 57.1901 2.736 62.4341 7.448C67.5261 12.046 70.6801 18.468 70.6801 26.106C70.6801 33.972 67.9821 38.874 65.3601 43.624C63.6501 46.74 61.9401 49.818 61.2561 53.618C60.3441 58.596 65.2081 66.462 67.4881 70.186C67.9821 70.87 68.3241 71.478 68.5141 71.782Z" fill="#B5A6B0" fill-opacity="0.9"/>
</svg>
