<svg width="141" height="141" viewBox="0 0 141 141" fill="none" xmlns="http://www.w3.org/2000/svg">
<path d="M70.5 0C109.436 0 141 31.5639 141 70.5C141 109.436 109.436 141 70.5 141C31.5639 141 0 109.436 0 70.5C0 31.5639 31.5639 0 70.5 0ZM94.8389 52.0186C89.4734 36.7713 73.1009 37.8512 72.9805 37.8594C53.2149 38.4383 52.3039 55.5403 52.2988 55.6377C50.2693 58.6899 51.9935 59.5694 52.0049 59.5752C52.7328 61.1613 46.6637 69.2754 46.6191 69.335C43.7062 72.2482 49.2145 72.6897 49.2363 72.6914C51.7009 73.1259 49.8509 76.1497 49.8252 76.1914C49.6869 76.4027 49.5866 76.6376 49.5303 76.8838H66.0039C67.0484 76.8838 68.0828 77.0896 69.0479 77.4893C70.0129 77.889 70.8903 78.4743 71.6289 79.2129C72.3675 79.9514 72.9528 80.829 73.3525 81.7939C73.7522 82.7589 73.958 83.7935 73.958 84.8379V103.61H88.4355C88.7204 101.58 85.3975 89.564 85.373 89.4756C83.4861 81.0463 91.0452 72.7668 91.0918 72.7158C99.0153 60.973 94.8709 52.0868 94.8389 52.0186ZM51.3203 82.0059C51.4967 82.5345 51.5212 83.1026 51.3916 83.6445C50.9373 85.058 50.8884 86.5706 51.249 88.0107C51.9718 90.4888 61.275 89.0414 61.3027 89.0371C65.0996 87.7299 62.4738 103.503 62.4561 103.609H68.8193V84.8848C68.8193 84.1323 68.5251 83.4091 67.999 82.8711C67.4728 82.333 66.7563 82.0225 66.0039 82.0059H51.3203Z" fill="#C890F2"/>
</svg>

