<svg width="38" height="38" viewBox="0 0 38 38" fill="none" xmlns="http://www.w3.org/2000/svg">
<path d="M3.9585 33.25C3.9585 32.8301 4.12531 32.4274 4.42224 32.1304C4.71918 31.8335 5.1219 31.6667 5.54183 31.6667H34.0418C34.2498 31.6667 34.4556 31.7076 34.6477 31.7872C34.8398 31.8668 35.0144 31.9834 35.1614 32.1304C35.3084 32.2775 35.4251 32.452 35.5046 32.6441C35.5842 32.8362 35.6252 33.0421 35.6252 33.25C35.6252 33.4579 35.5842 33.6638 35.5046 33.8559C35.4251 34.048 35.3084 34.2226 35.1614 34.3696C35.0144 34.5166 34.8398 34.6333 34.6477 34.7128C34.4556 34.7924 34.2498 34.8334 34.0418 34.8334H5.54183C5.1219 34.8334 4.71918 34.6665 4.42224 34.3696C4.12531 34.0727 3.9585 33.6699 3.9585 33.25ZM25.0912 3.16669C25.2994 3.16652 25.5056 3.20741 25.6979 3.28702C25.8903 3.36662 26.0651 3.48338 26.2122 3.6306L31.9946 9.4161C32.2914 9.71302 32.4582 10.1157 32.4582 10.5355C32.4582 10.9554 32.2914 11.358 31.9946 11.6549L15.6213 28.0361C15.3245 28.3331 14.9218 28.4999 14.5019 28.5H8.7085C8.28857 28.5 7.88584 28.3332 7.58891 28.0363C7.29198 27.7393 7.12516 27.3366 7.12516 26.9167V21.1534C7.12483 20.7337 7.29112 20.3311 7.5875 20.0339L23.9718 3.6306C24.2687 3.33365 24.6714 3.16678 25.0912 3.16669Z" fill="#B5A6B0"/>
</svg>

