<svg width="37" height="37" viewBox="0 0 37 37" fill="none" xmlns="http://www.w3.org/2000/svg">
<path d="M22.8426 21.3185C22.8886 22.0211 23.5242 22.548 24.2017 22.502C27.016 22.3096 28.233 20.2104 28.4839 19.1231C28.6428 18.4457 28.2246 17.7807 27.5472 17.6093C27.4473 17.5845 27.3448 17.5718 27.2419 17.5717C26.6774 17.5717 26.1588 17.9564 26.0041 18.5252C25.9456 18.7468 25.5692 19.8508 24.0261 19.9553C23.3235 20.0096 22.7966 20.616 22.8426 21.3185ZM10.916 21.9082C10.916 22.4255 11.3354 22.8449 11.8528 22.8449C12.3701 22.8449 12.7895 22.4255 12.7895 21.9082C12.7895 21.3908 12.3701 20.9714 11.8528 20.9714C11.3354 20.9715 10.916 21.3908 10.916 21.9082ZM11.0541 20.8753C11.7022 20.6034 12.0117 19.8591 11.7399 19.2109C11.213 17.948 10.9495 16.6057 10.9495 15.2256C10.9495 9.50492 15.6038 4.85058 21.3246 4.85058C21.8975 4.85058 22.4704 4.89654 23.0308 4.98857C23.2399 5.02203 23.4448 5.06387 23.6497 5.10983C24.3355 5.26456 25.0213 4.83801 25.176 4.15221C25.3308 3.46637 24.9042 2.78476 24.2184 2.62585C23.9636 2.56722 23.707 2.51701 23.449 2.47532C22.7506 2.36237 22.0397 2.30383 21.3288 2.30383C14.203 2.30383 8.40283 8.09982 8.40283 15.2298C8.40283 16.9485 8.73739 18.6171 9.38969 20.1937C9.65733 20.8335 10.4017 21.1429 11.0541 20.8753Z" fill="#EA6363"/>
<path d="M28.2497 4.30696C28.0364 4.17312 27.8023 4.1062 27.5681 4.1062C27.1457 4.1062 26.7359 4.31527 26.4934 4.69585C26.117 5.28966 26.2926 6.0758 26.8864 6.45639C29.9015 8.37583 31.7039 11.6502 31.7039 15.2214C31.7039 20.9421 27.0495 25.5966 21.3288 25.5966C18.8155 25.5966 16.4026 24.6932 14.5166 23.0456C14.4999 23.0247 14.479 23.0038 14.4581 22.9829C14.3661 22.8909 14.2657 22.8156 14.157 22.7571C13.7095 22.4936 13.1408 22.5229 12.7268 22.8449C12.6688 22.8863 12.6142 22.9325 12.5637 22.9828L9.59046 25.9561L5.93137 22.2971C5.41282 21.7785 4.55973 21.7785 4.037 22.2971C3.51845 22.8156 3.51845 23.6687 4.037 24.1915L7.69609 27.8506L3.1379 32.4129C2.6194 32.9314 2.6194 33.7845 3.1379 34.3072C3.65644 34.8258 4.50954 34.8258 5.03227 34.3072L9.59462 29.7449L13.467 33.6172C13.9855 34.1358 14.8386 34.1358 15.3613 33.6172C15.8799 33.0987 15.8799 32.2456 15.3613 31.7229L11.4806 27.8506L13.6886 25.6425C15.8966 27.2609 18.5604 28.1432 21.3288 28.1432C28.4546 28.1474 34.2506 22.3472 34.2506 15.2214C34.2506 10.7762 32.0092 6.69476 28.2497 4.30696Z" fill="#EA6363"/>
</svg>

