<svg width="247" height="247" viewBox="0 0 247 247" fill="none" xmlns="http://www.w3.org/2000/svg">
<path d="M247 179.322C247 81.51 160.056 0 64.714 0C39.026 0 21.242 17.537 21.242 39.767C21.242 62.491 39.52 78.052 63.726 80.275C116.337 85.215 158.08 127.946 158.08 156.845C158.08 166.972 153.387 172.9 144.495 172.9C118.313 172.9 113.373 123.5 61.75 123.5C27.417 123.5 0 150.917 0 185.25C0 220.077 28.158 247 62.491 247C114.114 247 119.301 197.6 144.989 197.6C171.912 197.6 172.159 230.945 206.986 231.439C232.18 231.686 247 213.161 247 179.322Z" fill="#0B5B38"/>
</svg>
