<svg width="74" height="74" viewBox="0 0 74 74" fill="none" xmlns="http://www.w3.org/2000/svg">
  <g id="stress-recovery-icon">
    <path 
      id="stress-recovery-path-1"
      d="M7.01709 69.3102C5.73799 69.3102 4.70459 68.2768 4.70459 66.9977C4.70459 62.6401 5.55732 58.4126 7.24111 54.4307C8.86709 50.5862 11.194 47.1319 14.1569 44.169C17.1198 41.2061 20.5741 38.8792 24.4187 37.2532C28.4005 35.5694 32.628 34.7166 36.9856 34.7166C40.3532 34.7166 43.6702 35.2297 46.8499 36.2487C48.064 36.6389 48.736 37.9397 48.3458 39.1538C47.9556 40.3678 46.6548 41.0399 45.4407 40.6497C42.7235 39.7752 39.8763 39.3344 36.9929 39.3344C21.7448 39.3344 9.33682 51.7424 9.33682 66.9905C9.32959 68.2696 8.29619 69.3102 7.01709 69.3102ZM36.9784 34.2252C29.2171 34.2252 22.6915 28.1477 22.2362 20.3069C22.005 16.3684 23.3274 12.5745 25.9507 9.62602C28.5739 6.67759 32.1872 4.92876 36.1329 4.69751C44.27 4.22056 51.2726 10.4571 51.7423 18.5942C52.2192 26.7313 45.9827 33.7338 37.8456 34.2036C37.5565 34.218 37.2675 34.2252 36.9784 34.2252ZM36.4003 9.30806C33.6903 9.46704 31.2116 10.6666 29.405 12.6973C27.5983 14.728 26.695 17.3295 26.854 20.0395C27.1792 25.6256 31.9921 29.911 37.5782 29.5858C43.1644 29.2606 47.4497 24.4477 47.1245 18.8616C46.7993 13.2682 41.9864 8.98286 36.4003 9.30806Z" 
      fill="#B5A6B0" 
      fill-opacity="0.9"
    />
    <path 
      id="stress-recovery-path-2"
      d="M31 66.0414C36.5687 66.4762 52.9964 68.5634 61.1638 64.7369C71.3731 59.9538 69.5169 52.1267 59.7717 49.0829C51.9755 46.6478 42.4468 48.9379 38.889 49.9525" 
      stroke="#B5A6B0" 
      stroke-opacity="0.9" 
      stroke-width="4" 
      stroke-linecap="round"
    />
    <path 
      id="stress-recovery-path-3"
      d="M40.5 43L38.5 50L43.5 55.5" 
      stroke="#B5A6B0" 
      stroke-opacity="0.9" 
      stroke-width="4" 
      stroke-linecap="round"
    />
  </g>
</svg>
