<svg width="80" height="80" viewBox="0 0 80 80" fill="none" xmlns="http://www.w3.org/2000/svg">
<path d="M40 54.1293C37.0049 54.1203 34.135 52.9264 32.0174 50.8082C29.8998 48.69 28.7066 45.8198 28.6985 42.8247C28.7074 39.83 29.901 36.9606 32.0185 34.8431C34.136 32.7256 37.0054 31.532 40 31.5231C42.9946 31.532 45.864 32.7256 47.9815 34.8431C50.0991 36.9606 51.2926 39.83 51.3016 42.8247C51.2934 45.8198 50.1002 48.69 47.9826 50.8082C45.865 52.9264 42.9952 54.1203 40 54.1293ZM40 35.2893C38.0027 35.295 36.0889 36.0911 34.6769 37.5037C33.2649 38.9163 32.4695 40.8304 32.4646 42.8277C32.4719 44.8234 33.2684 46.7352 34.6801 48.1458C36.0919 49.5564 38.0043 50.3513 40 50.357C41.9968 50.3513 43.9101 49.5555 45.3221 48.1436C46.734 46.7317 47.5297 44.8183 47.5354 42.8216C47.5281 40.8259 46.7317 38.9141 45.3199 37.5035C43.9081 36.0929 41.9957 35.298 40 35.2923V35.2893ZM40 24.9293C37.0054 24.9203 34.136 23.7268 32.0185 21.6093C29.901 19.4917 28.7074 16.6223 28.6985 13.6277C28.7066 10.6326 29.8998 7.7624 32.0174 5.64422C34.135 3.52604 37.0049 2.33205 40 2.32312C42.9952 2.33205 45.865 3.52604 47.9826 5.64422C50.1002 7.7624 51.2934 10.6326 51.3016 13.6277C51.2926 16.6223 50.0991 19.4917 47.9815 21.6093C45.864 23.7268 42.9946 24.9203 40 24.9293ZM40 6.09235C38.0033 6.09803 36.0899 6.89376 34.678 8.30569C33.266 9.71762 32.4703 11.631 32.4646 13.6277C32.4703 15.6245 33.266 17.5378 34.678 18.9498C36.0899 20.3617 38.0033 21.1574 40 21.1631C41.9973 21.1574 43.9111 20.3613 45.3231 18.9487C46.7352 17.5361 47.5305 15.622 47.5354 13.6247C47.5289 11.6284 46.7328 9.71587 45.321 8.3046C43.9091 6.89334 41.9962 6.09803 40 6.09235ZM66.3723 72.9662C63.3777 72.9573 60.5083 71.7637 58.3908 69.6462C56.2733 67.5287 55.0797 64.6593 55.0708 61.6646C55.0789 58.6695 56.2721 55.7993 58.3897 53.6811C60.5073 51.563 63.3772 50.369 66.3723 50.36C69.368 50.3682 72.2387 51.5618 74.3569 53.68C76.4752 55.7983 77.6688 58.669 77.6769 61.6646C77.668 64.6598 76.474 67.5297 74.3558 69.6473C72.2377 71.7649 69.3675 72.9581 66.3723 72.9662ZM66.3723 54.1293C64.3756 54.1349 62.4622 54.9307 61.0503 56.3426C59.6384 57.7545 58.8426 59.6679 58.8369 61.6646C58.8426 63.6619 59.6388 65.5758 61.0514 66.9878C62.464 68.3998 64.3781 69.1952 66.3754 69.2C68.3722 69.1935 70.2852 68.397 71.6965 66.9845C73.1079 65.572 73.9028 63.6583 73.9077 61.6616C73.9012 59.6653 73.1051 57.7528 71.6933 56.3415C70.2814 54.9303 68.3686 54.1349 66.3723 54.1293ZM13.6308 72.9662C10.6356 72.9581 7.76545 71.7649 5.64727 69.6473C3.52909 67.5297 2.3351 64.6598 2.32617 61.6646C2.33429 58.669 3.52792 55.7983 5.64619 53.68C7.76446 51.5618 10.6351 50.3682 13.6308 50.36C16.6259 50.369 19.4958 51.563 21.6134 53.6811C23.731 55.7993 24.9242 58.6695 24.9323 61.6646C24.9234 64.6593 23.7298 67.5287 21.6123 69.6462C19.4948 71.7637 16.6254 72.9573 13.6308 72.9662ZM13.6308 54.1293C11.6335 54.1341 9.71935 54.9295 8.30676 56.3415C6.89417 57.7535 6.09801 59.6674 6.09233 61.6646C6.09801 63.6619 6.89417 65.5758 8.30676 66.9878C9.71935 68.3998 11.6335 69.1952 13.6308 69.2C15.6281 69.1944 17.5419 68.3982 18.9539 66.9856C20.3659 65.573 21.1613 63.6589 21.1662 61.6616C21.1597 59.6648 20.3632 57.7518 18.9507 56.3404C17.5382 54.9291 15.6245 54.1341 13.6277 54.1293H13.6308ZM40 77.677C38.253 77.6713 36.5791 76.9747 35.3437 75.7394C34.1084 74.504 33.4118 72.8302 33.4062 71.0831C33.4118 69.3361 34.1084 67.6622 35.3437 66.4268C36.5791 65.1915 38.253 64.4949 40 64.4893C41.7471 64.4949 43.4209 65.1915 44.6563 66.4268C45.8917 67.6622 46.5882 69.3361 46.5939 71.0831C46.5882 72.8302 45.8917 74.504 44.6563 75.7394C43.4209 76.9747 41.7471 77.6713 40 77.677ZM40 68.2585C39.2516 68.2609 38.5346 68.5593 38.0054 69.0885C37.4762 69.6177 37.1778 70.3347 37.1754 71.0831C37.1754 72.637 38.4462 73.9077 40 73.9077C40.7484 73.9053 41.4654 73.6069 41.9946 73.0777C42.5238 72.5485 42.8222 71.8315 42.8246 71.0831C42.8222 70.3347 42.5238 69.6177 41.9946 69.0885C41.4654 68.5593 40.7484 68.2609 40 68.2585ZM66.3723 34.8185C64.6258 34.812 62.9527 34.1151 61.718 32.8799C60.4833 31.6446 59.7872 29.9712 59.7816 28.2247C59.788 26.4787 60.4845 24.8061 61.7191 23.5714C62.9537 22.3368 64.6263 21.6404 66.3723 21.6339C68.1188 21.6396 69.7923 22.3357 71.0275 23.5704C72.2628 24.8051 72.9597 26.4781 72.9662 28.2247C72.9605 29.9717 72.264 31.6456 71.0286 32.8809C69.7932 34.1163 68.1194 34.8128 66.3723 34.8185ZM66.3723 25.4031C65.6245 25.4055 64.9079 25.7035 64.3788 26.232C63.8497 26.7606 63.551 27.4768 63.5477 28.2247C63.5477 29.7816 64.8185 31.0523 66.3723 31.0523C67.1218 31.0507 67.8401 30.7523 68.37 30.2223C68.9 29.6924 69.1984 28.9741 69.2 28.2247C69.1976 27.4757 68.8988 26.7582 68.3689 26.229C67.8391 25.6997 67.1212 25.4017 66.3723 25.4V25.4031ZM13.6308 34.8154C11.8837 34.8097 10.2099 34.1132 8.97451 32.8779C7.73915 31.6425 7.04262 29.9686 7.03694 28.2216C7.04343 26.4751 7.74032 24.802 8.97559 23.5673C10.2109 22.3326 11.8843 21.6365 13.6308 21.6308C15.3762 21.6389 17.0477 22.3365 18.2811 23.5716C19.5145 24.8067 20.2097 26.4792 20.2154 28.2247C20.2097 29.9712 19.5136 31.6446 18.2789 32.8799C17.0442 34.1151 15.3712 34.812 13.6246 34.8185L13.6308 34.8154ZM13.6308 25.4C12.8824 25.4017 12.165 25.6993 11.6353 26.2279C11.1055 26.7565 10.8063 27.4732 10.8031 28.2216C10.8031 29.7785 12.0739 31.0493 13.6308 31.0493C14.3797 31.0468 15.0972 30.748 15.6265 30.2182C16.1558 29.6883 16.4538 28.9705 16.4554 28.2216C16.453 27.4732 16.1546 26.7562 15.6254 26.227C15.0962 25.6978 14.3792 25.3994 13.6308 25.397V25.4ZM40 35.2862C39.5011 35.2846 39.0231 35.0857 38.6703 34.7329C38.3175 34.3801 38.1186 33.902 38.1169 33.4031V23.0462C38.1169 22.0093 38.9631 21.1631 40 21.1631C41.0369 21.1631 41.8831 22.0093 41.8831 23.0462V33.4062C41.8815 33.9051 41.6826 34.3831 41.3298 34.7359C40.977 35.0887 40.4989 35.2876 40 35.2893V35.2862ZM40 68.2554C39.5006 68.2538 39.0221 68.0545 38.6692 67.701C38.3163 67.3475 38.1178 66.8687 38.1169 66.3693V52.2462C38.1169 51.2093 38.9631 50.36 40 50.36C41.0369 50.36 41.8831 51.2093 41.8831 52.2462V66.3723C41.8823 66.8718 41.6837 67.3506 41.3308 67.7041C40.978 68.0575 40.4995 68.2569 40 68.2585V68.2554ZM47.8154 39.48C47.3881 39.4838 46.9721 39.3423 46.6357 39.0788C46.2993 38.8152 46.0624 38.4453 45.9637 38.0295C45.865 37.6137 45.9105 37.1767 46.0926 36.7901C46.2747 36.4035 46.5827 36.0902 46.9662 35.9016L61.3354 28.7416C61.5576 28.6292 61.7999 28.5619 62.0483 28.5436C62.2967 28.5254 62.5462 28.5565 62.7825 28.6351C63.0188 28.7138 63.2371 28.8385 63.425 29.002C63.6128 29.1655 63.7664 29.3646 63.8769 29.5877C63.9898 29.8101 64.0575 30.0527 64.076 30.3014C64.0945 30.5501 64.0635 30.8 63.9848 31.0366C63.9062 31.2733 63.7813 31.4919 63.6176 31.68C63.4538 31.8681 63.2544 32.0218 63.0308 32.1323L48.6646 39.2893C48.3944 39.3972 48.1088 39.4616 47.8185 39.48H47.8154ZM32.1354 39.48C31.8412 39.485 31.55 39.4196 31.2862 39.2893L16.8769 32.1323C16.6531 32.0221 16.4534 31.8686 16.2893 31.6806C16.1252 31.4927 16.0001 31.274 15.9211 31.0373C15.8421 30.8007 15.8108 30.5507 15.8291 30.3019C15.8474 30.053 15.9149 29.8103 16.0277 29.5877C16.1382 29.3642 16.2919 29.1647 16.48 29.001C16.6681 28.8372 16.8868 28.7124 17.1235 28.6337C17.3601 28.555 17.61 28.524 17.8587 28.5425C18.1074 28.561 18.3499 28.6287 18.5723 28.7416L32.9354 35.8985C33.8769 36.3693 34.2554 37.4985 33.7846 38.4431C33.6376 38.7555 33.4041 39.0192 33.1118 39.203C32.8195 39.3868 32.4807 39.4829 32.1354 39.48ZM58.6492 57.8C58.2768 57.8072 57.9124 57.6915 57.6123 57.4708L46.4523 50.1231C45.6031 49.557 45.3231 48.3785 45.9354 47.5323C46.4985 46.6831 47.6769 46.4031 48.5231 47.0154L59.6862 54.36C60.5323 54.9262 60.8154 56.1047 60.2031 56.9508C60.0338 57.2091 59.8034 57.4217 59.5324 57.5698C59.2614 57.7179 58.9581 57.797 58.6492 57.8ZM21.3016 57.8C20.9908 57.8072 20.6837 57.7324 20.411 57.5834C20.1382 57.4343 19.9095 57.2162 19.7477 56.9508C19.4769 56.5372 19.3797 56.0336 19.477 55.5489C19.5743 55.0642 19.8583 54.6372 20.2677 54.36L31.4277 47.0154C31.841 46.7444 32.3443 46.6466 32.829 46.7433C33.3136 46.84 33.7409 47.1234 34.0185 47.5323C34.2895 47.9456 34.3873 48.4489 34.2906 48.9336C34.1939 49.4183 33.9105 49.8455 33.5016 50.1231L22.3385 57.4739C22.0384 57.6946 21.674 57.8103 21.3016 57.8031V57.8Z" fill="#B5A6B0" fill-opacity="0.9"/>
</svg>
