<svg xmlns="http://www.w3.org/2000/svg" viewBox="0 0 364 95" width="364" height="95">
  <defs>
    <linearGradient id="gaugeGradient" x1="-74.8485" y1="69.9316" x2="437.878" y2="69.9316" gradientUnits="userSpaceOnUse">
      <stop offset="0.0485284" stop-color="#9CC5B6" stop-opacity="0"/>
      <stop offset="0.474249" stop-color="#79A598"/>
      <stop offset="1" stop-color="#EDFFF9" stop-opacity="0.57"/>
    </linearGradient>
  </defs>

  <path 
    id="gauge-scale-path"
    d="M5.03741 42.4815C9.57568 40.1692 15.1297 41.9736 17.4422 46.5117L35.2824 81.5263C37.5946 86.0646 35.7903 91.6179 31.2521 93.9304C26.7137 96.2428 21.1597 94.4385 18.8473 89.9001L1.00714 54.8863C-1.30513 50.3479 0.499079 44.7939 5.03741 42.4815ZM346.53 46.5125C348.842 41.9742 354.396 40.169 358.935 42.4815C363.473 44.7939 365.277 50.348 362.965 54.8863L345.125 89.9001C342.812 94.4385 337.258 96.2427 332.72 93.9304C328.182 91.6179 326.377 86.0647 328.69 81.5263L346.53 46.5125ZM32.2436 29.9121C36.9461 27.9553 42.3444 30.1815 44.3015 34.8838L59.3998 71.1656C61.3565 75.8681 59.1306 81.2665 54.4281 83.2235C49.7255 85.1803 44.3264 82.9544 42.3694 78.2518L27.2728 41.9708C25.3159 37.2682 27.5411 31.8691 32.2436 29.9121ZM318.513 34.4374C320.455 29.7286 325.846 27.4851 330.555 29.4266C335.264 31.3682 337.507 36.7592 335.565 41.468L320.587 77.7983C318.645 82.5074 313.254 84.7507 308.545 82.8092C303.836 80.8676 301.592 75.4766 303.534 70.7677L318.513 34.4374ZM61.5426 19.076C66.3867 17.5021 71.5901 20.1536 73.1642 24.9977L85.3075 62.3712C86.8815 67.2154 84.23 72.4188 79.3858 73.9929C74.5416 75.5666 69.3389 72.9154 67.7649 68.0712L55.6217 30.6977C54.0478 25.8535 56.6984 20.65 61.5426 19.076ZM290.808 24.9977C292.382 20.1536 297.585 17.502 302.43 19.076C307.274 20.6501 309.924 25.8535 308.35 30.6977L296.207 68.0712C294.633 72.9153 289.43 75.5665 284.586 73.9929C279.742 72.4188 277.091 67.2155 278.665 62.3712L290.808 24.9977ZM90.3802 10.9176C95.331 9.72046 100.315 12.7641 101.512 17.7148L110.748 55.9107C111.946 60.8616 108.902 65.8457 103.951 67.0429C99.0004 68.2397 94.0169 65.1964 92.8198 60.2456L83.5837 22.0505C82.3866 17.0997 85.4294 12.1148 90.3802 10.9176ZM261.247 17.4548C262.428 12.5 267.402 9.44055 272.357 10.6215C277.311 11.8026 280.37 16.7764 279.189 21.731L270.079 59.9574C268.898 64.9122 263.923 67.9709 258.968 66.7899C254.014 65.6088 250.955 60.6351 252.136 55.6805L261.247 17.4548ZM121.014 4.79857C126.044 4.00185 130.769 7.43444 131.565 12.4652L137.713 51.2782C138.51 56.3089 135.078 61.033 130.047 61.83C125.016 62.6268 120.292 59.1943 119.495 54.1634L113.347 15.3504C112.55 10.3197 115.983 5.59543 121.014 4.79857ZM232.407 12.4652C233.204 7.4344 237.928 4.00177 242.958 4.79857C247.989 5.59547 251.422 10.3198 250.625 15.3504L244.477 54.1642C243.68 59.1948 238.956 62.6267 233.925 61.83C228.894 61.0331 225.462 56.309 226.259 51.2782L232.407 12.4652ZM150.773 1.25153C155.85 0.84384 160.296 4.62919 160.704 9.706L163.851 48.8777C164.259 53.9547 160.474 58.4005 155.397 58.8085C150.32 59.2163 145.873 55.4312 145.465 50.354L142.319 11.1839C141.911 6.10664 145.696 1.65945 150.773 1.25153ZM202.029 9.63943C202.421 4.56089 206.855 0.760709 211.933 1.15206C217.012 1.54342 220.811 5.97779 220.42 11.0562L217.401 50.2373C217.009 55.3159 212.575 59.1153 207.497 58.7239C202.418 58.3325 198.619 53.8983 199.01 48.8198L202.029 9.63943ZM181.986 0C187.079 7.93579e-05 191.209 4.12933 191.209 9.22277V48.5198C191.209 53.6133 187.08 57.7425 181.986 57.7426C176.892 57.7426 172.763 53.6134 172.763 48.5198V9.22277C172.763 4.12929 176.893 0 181.986 0Z"
    fill="url(#gaugeGradient)"
  />
  
  <path 
    id="gauge-pointer-path"
    d="M31.4433 3.15748C34.9775 3.88821 38.1622 7.07738 37.659 11.0556L37.5991 11.4428L18.0746 117.004C17.2919 121.236 12.9428 123.086 9.27478 122.328C5.62687 121.573 2.35089 118.199 3.11903 114.042L3.11928 114.041L22.6438 8.48038C23.4265 4.24867 27.7754 2.39946 31.4433 3.15748Z"
    fill="#A87D7D"
    stroke="white"
    stroke-width="6"
    stroke-linecap="round"
  />
</svg>
