<svg width="106" height="106" viewBox="0 0 106 106" fill="none" xmlns="http://www.w3.org/2000/svg">
  <g id="stress-level-icon">
    <path 
      id="stress-icon-path"
      d="M71.6118 88.7149L67.9548 88.5842C67.9548 88.5842 68.2145 75.525 68.3453 74.0869C68.476 72.5199 69.1297 71.345 69.7833 70.4299L70.5659 69.1243C75.3978 61.2892 76.8359 60.1143 78.5336 60.2433C81.7984 60.5048 83.4962 59.9818 84.2788 59.4607L85.5862 58.807C87.4146 57.7629 92.6387 54.8885 94.075 53.8427C94.075 51.493 92.2465 42.483 91.0716 40.3913C90.418 39.0857 88.7202 36.6035 87.1532 34.3846C85.1939 31.3813 84.0191 29.6817 83.7577 28.8991C83.3654 28.2454 81.014 26.6784 79.9699 26.0247C79.447 25.6343 78.924 25.3711 78.6626 25.1114C78.1414 24.7192 77.0956 23.9348 76.7051 23.9348C75.3978 24.1962 73.4403 25.7633 73.5693 27.5918C73.5693 28.1147 73.9615 28.7684 74.7459 29.2895C75.79 30.2047 77.0956 30.4661 77.4878 30.3354C79.5777 29.9432 81.7984 29.4203 83.2347 31.7717C84.1498 33.3387 85.4554 35.4287 85.5844 38.3013C85.7169 42.8734 85.8476 45.6153 86.1073 46.269C86.761 47.4438 86.6302 48.3589 85.9784 49.1416C84.9325 50.1874 83.4962 49.5338 82.8425 49.2723C81.9292 48.7511 79.9699 48.2282 78.7951 48.6186C77.88 49.0108 77.4878 49.2723 77.0956 49.6645C76.8359 49.926 76.4419 50.1874 76.0532 50.4489C74.6152 51.2315 73.3096 50.3182 71.2196 49.0108C70.3045 48.3572 68.3453 47.0534 67.6934 47.0534C65.9956 47.1823 65.0805 47.1823 64.819 47.4438C63.5134 48.0975 62.2079 47.4438 59.7257 44.9634C57.2453 42.4812 56.5916 40.9142 57.2453 39.6086C57.376 39.4779 57.6357 39.0857 58.0279 38.5628C58.9431 37.2572 61.9464 33.0773 61.9464 31.3795C61.9464 27.4628 60.9023 20.9314 53.4576 20.9314C46.0128 20.9314 44.9687 27.4628 44.9687 31.3795C44.9687 33.0773 47.8413 37.1265 48.8854 38.5628C49.2776 39.0857 49.5391 39.4779 49.6698 39.6086C50.4525 40.9142 49.6698 42.3505 47.1877 44.9616C44.7073 47.4438 43.3999 48.0975 42.0944 47.4438C41.8329 47.3131 40.9195 47.1823 39.2218 47.0534C38.5681 47.0534 36.6089 48.3589 35.6955 49.0108C33.6055 50.3182 32.3 51.2315 30.8619 50.4489C30.3407 50.1874 30.0793 49.926 29.8178 49.6645C29.4256 49.2723 29.0334 49.0108 28.12 48.6204C26.9452 48.2282 24.986 48.7511 24.0708 49.2741C23.4172 49.5338 21.9809 50.3164 20.9368 49.1416C20.2831 48.3589 20.1524 47.4456 20.806 46.269C21.0675 45.6153 21.1982 43.0042 21.329 38.3013C21.329 35.4287 22.6345 33.208 23.5497 31.9024C25.1167 29.4203 27.3356 29.8125 29.1641 30.2047C29.6871 30.3354 30.8619 30.0739 31.9078 29.1606C32.8211 28.5069 33.3441 27.7225 33.3441 27.0706C33.4748 25.2421 31.5156 24.1962 30.21 23.9348C29.9485 23.9348 28.7737 24.7192 28.249 25.1114C27.8603 25.3728 27.4664 25.6343 26.9452 26.0247C25.8993 26.6784 23.5497 28.2454 23.1575 28.8991C22.896 29.6817 21.7212 31.3795 19.7619 34.2521C18.1949 36.4728 16.4954 39.0857 15.8435 40.3913C14.6669 42.4812 12.8401 51.493 12.8401 53.8444C14.015 54.7578 19.5005 57.7629 21.329 58.807L22.6345 59.4607C23.5497 59.9818 25.2474 60.5048 28.3815 60.2433C30.0775 60.1126 31.5156 61.2892 36.3492 69.1243L37.1318 70.4317C37.7855 71.345 38.4391 72.3891 38.5681 74.0887C38.6988 75.525 38.9603 88.5842 38.9603 88.5842L35.0418 88.7149C35.0418 88.7149 34.7804 75.7847 34.6496 74.3484C34.6496 73.6947 34.3882 73.435 33.867 72.6524L32.9519 71.2143C29.9485 66.25 28.5122 64.6847 27.9893 64.1618C24.8552 64.2925 22.3731 63.9003 20.5446 62.8544L19.2372 62.2025C11.4021 57.8919 9.83503 56.717 9.18313 55.9344C7.74506 53.7137 11.1406 40.7835 12.1865 38.8242C12.9691 37.3879 14.6669 34.9058 16.2357 32.4254C17.4105 30.5969 19.1083 28.1147 19.3697 27.5918C20.0234 26.1555 21.8501 24.8499 24.5938 23.1521C25.1167 22.8907 25.5071 22.4985 25.7686 22.3677C27.0759 21.4544 28.643 20.2795 30.4715 20.5392C33.7363 21.0622 37.0011 23.8058 36.7396 27.5918C36.6089 29.4203 35.5648 31.118 33.7363 32.5561C32.3 33.6002 30.21 34.6443 28.3815 34.3846C27.4664 34.2539 26.6837 33.9924 26.553 34.1231C25.7686 35.5594 24.8552 36.9957 24.8552 38.8242C24.8552 41.8276 24.7245 43.9175 24.5938 45.4846C25.9011 45.0941 27.5971 44.9634 29.1641 45.4846C30.7312 46.0075 31.5156 46.6612 32.0385 47.1823C32.4307 46.9226 32.9519 46.5287 33.3441 46.269C35.3033 44.9616 37.2625 43.6561 39.091 43.7868C40.787 43.9175 41.8329 43.9175 42.6173 44.179C43.5307 43.5253 44.967 42.089 45.6206 41.1757L45.4899 41.0449C43.1402 37.6494 40.9195 34.2539 40.9195 31.7717C40.9195 28.5069 41.8329 17.6666 53.0654 17.6666C64.2978 17.6666 65.2112 28.5069 65.2112 31.7717C65.2112 34.2539 62.9905 37.7784 60.6408 41.0449L60.5101 41.1757C61.1638 42.089 62.6001 43.5253 63.5134 44.179C64.4286 43.9175 65.4727 43.7868 67.0397 43.7868C68.8682 43.6561 70.8274 45.0941 72.7867 46.269C73.1788 46.5304 73.7 46.9226 74.094 47.1823C74.6152 46.6612 75.3978 46.0075 76.9666 45.4863C78.5336 44.9634 80.2314 45.0941 81.5369 45.4863C81.354 43.271 81.2668 41.0488 81.2755 38.826C81.2755 36.865 80.3621 35.5594 79.5795 34.2539C79.3163 33.9924 78.5336 34.1231 77.88 34.2539C75.9207 34.6443 73.5693 33.8617 71.8733 32.5561C70.3045 31.3795 69.3911 29.8125 69.2586 28.1147C68.9989 24.327 72.3945 21.0622 75.5303 20.5392C77.357 20.2795 78.924 21.3236 80.2296 22.3677C80.4929 22.6292 81.014 22.8907 81.4062 23.1521C84.0191 24.8499 85.9783 26.1555 86.6302 27.5918C86.8917 28.1147 88.5912 30.5951 89.7643 32.4254C91.3331 34.9058 93.0309 37.3879 93.8135 38.8242C94.8594 40.7835 98.2549 53.7137 96.8168 55.9344C96.2957 56.8478 94.5979 57.8919 86.761 62.2025L85.4537 62.8562C83.6269 63.9003 81.1448 64.2925 78.0107 64.1618C77.4877 64.6847 76.0515 66.2517 73.0463 71.345L72.133 72.7813C71.6118 73.5657 71.3504 73.9562 71.3504 74.4791C71.8715 75.7864 71.6118 88.7149 71.6118 88.7149Z" 
      fill="#B5A6B0" 
      fill-opacity="0.9"
    />
  </g>
</svg>
